<svg xmlns="http://www.w3.org/2000/svg" width="760" height="160" viewBox="0 0 760 160" role="img" aria-label="ReviewScope logo">
  <defs>
    <linearGradient id="scopeGradient" x1="12" y1="12" x2="64" y2="64" gradientUnits="userSpaceOnUse">
      <stop offset="0%" stop-color="#38BDF8"></stop>
      <stop offset="100%" stop-color="#0EA5E9"></stop>
    </linearGradient>
    <style>
      .word {
        font-family: Inter, Arial, Helvetica, sans-serif;
        font-weight: 780;
        letter-spacing: -1.3px;
      }
    </style>
  </defs>

  <g transform="translate(36,42)">
    <rect width="76" height="76" rx="18" fill="#102A43"></rect>

    <circle cx="38" cy="38" r="24" fill="none" stroke="url(#scopeGradient)" stroke-width="5.5" stroke-linecap="round"></circle>

    <line x1="38" y1="8" x2="38" y2="17" stroke="#38BDF8" stroke-width="5.5" stroke-linecap="round"></line>
    <line x1="38" y1="59" x2="38" y2="68" stroke="#38BDF8" stroke-width="5.5" stroke-linecap="round"></line>
    <line x1="8" y1="38" x2="17" y2="38" stroke="#38BDF8" stroke-width="5.5" stroke-linecap="round"></line>
    <line x1="59" y1="38" x2="68" y2="38" stroke="#38BDF8" stroke-width="5.5" stroke-linecap="round"></line>

    <g fill="#7DD3FC">
      <circle cx="31" cy="30" r="3.2"></circle>
      <circle cx="27" cy="36" r="3.2"></circle>
      <circle cx="34" cy="36" r="3.2"></circle>
    </g>

    <g fill="#2DD4BF">
      <circle cx="45" cy="30" r="3.2"></circle>
      <circle cx="42" cy="36" r="3.2"></circle>
      <circle cx="49" cy="36" r="3.2"></circle>
    </g>

    <g fill="#86EFAC">
      <circle cx="38" cy="41" r="3.2"></circle>
      <circle cx="34" cy="47" r="3.2"></circle>
      <circle cx="42" cy="47" r="3.2"></circle>
    </g>
  </g>

  <g transform="translate(128,103)">
    <text class="word" x="0" y="0" font-size="72" fill="#1E293B">Review</text>
    <text class="word" x="252" y="0" font-size="72" fill="#0284C7">Scope</text>
  </g>
</svg>